<?xml version="1.0" encoding="UTF-8" standalone="no"?>
<!-- Created with Inkscape (http://www.inkscape.org/) -->

<svg
   xmlns:dc="http://purl.org/dc/elements/1.1/"
   xmlns:cc="http://creativecommons.org/ns#"
   xmlns:rdf="http://www.w3.org/1999/02/22-rdf-syntax-ns#"
   xmlns:svg="http://www.w3.org/2000/svg"
   xmlns="http://www.w3.org/2000/svg"
   xmlns:sodipodi="http://sodipodi.sourceforge.net/DTD/sodipodi-0.dtd"
   xmlns:inkscape="http://www.inkscape.org/namespaces/inkscape"
   width="5.4526181mm"
   height="18.878429mm"
   viewBox="0 0 5.4526181 18.878429"
   version="1.1"
   id="svg983"
   inkscape:version="0.92.4 (5da689c313, 2019-01-14)"
   sodipodi:docname="LEDSVG.svg">
  <defs
     id="defs977" />
  <sodipodi:namedview
     id="base"
     pagecolor="#ffffff"
     bordercolor="#666666"
     borderopacity="1.0"
     inkscape:pageopacity="0.0"
     inkscape:pageshadow="2"
     inkscape:zoom="2.5665373"
     inkscape:cx="151.55124"
     inkscape:cy="-162.34692"
     inkscape:document-units="mm"
     inkscape:current-layer="layer1"
     showgrid="false"
     inkscape:window-width="2880"
     inkscape:window-height="1675"
     inkscape:window-x="-13"
     inkscape:window-y="-13"
     inkscape:window-maximized="1" />
  <metadata
     id="metadata980">
    <rdf:RDF>
      <cc:Work
         rdf:about="">
        <dc:format>image/svg+xml</dc:format>
        <dc:type
           rdf:resource="http://purl.org/dc/dcmitype/StillImage" />
        <dc:title />
      </cc:Work>
    </rdf:RDF>
  </metadata>
  <g
     inkscape:label="Layer 1"
     inkscape:groupmode="layer"
     id="layer1"
     transform="translate(-82.963933,-107.47023)">
    <polygon
       transform="matrix(0.254,0,0,0.254,82.856738,107.56387)"
       style="fill:#666666"
       points="8.355,18.187 13.906,12.229 4.732,12.229 3.06,13.4 3.06,22.371 4.439,22.371 4.439,18.187 "
       id="polygon28" />
    <polygon
       transform="matrix(0.254,0,0,0.254,82.856738,107.56387)"
       style="fill:#666666"
       points="15.361,22.371 16.63,22.371 16.63,11.839 14.97,11.839 15.576,12.547 10.294,18.187 15.361,18.187 "
       id="polygon30" />
    <rect
       x="84.227783"
       y="114.19804"
       width="0.75895196"
       height="12.149836"
       id="rect869"
       style="fill:#8c8c8c;stroke-width:0.25400001" />
    <path
       d="m 87.527499,117.6649 c 0,-0.41402 -0.375666,-0.74168 -0.7366,-1.05537 -0.146812,-0.12954 -0.423164,-0.35331 -0.423164,-0.50266 v -1.92989 h -0.762508 v 2.03911 c 0,0.37338 0.334264,0.66268 0.686562,0.96952 0.156718,0.13258 0.475742,0.44094 0.475742,0.62433 0,0.0737 10e-4,8.53872 10e-4,8.53872 h 0.759456 z"
       id="path871"
       inkscape:connector-curvature="0"
       style="fill:#8c8c8c;stroke-width:0.25400001" />
    <path
       style="opacity:0.65;fill:#e60000;stroke-width:0.25400001"
       inkscape:connector-curvature="0"
       d="m 87.963923,112.05671 v -2.08585 c 0,-1.38049 -1.1176,-2.50063 -2.499614,-2.50063 -1.380236,0 -2.500376,1.11811 -2.500376,2.50063 v 4.81508 c 0.519938,0.58242 1.44526,0.97104 2.500376,0.97104 1.629664,0 2.952242,-0.92354 2.952242,-2.06705 v -0.53746 c -2.54e-4,-0.4031 -0.167386,-0.7775 -0.452628,-1.09576 z"
       id="path32" />
  </g>
</svg>
